<svg xmlns="http://www.w3.org/2000/svg" height="48px" viewBox="0 -960 960 960" width="48px" fill="#FFFFFF"><path d="M242-254q56-37 113.05-57.5 57.04-20.5 125-20.5 67.95 0 124.45 20.5T719-254q42-47 66-103t24-123q0-137-96-233t-233-96q-137 0-233 96t-96 233q0 67 24 123t67 103Zm149-239.04q-36-36.04-36-89T391.04-671q36.04-36 89-36T569-670.96q36 36.04 36 89T568.96-493q-36.04 36-89 36T391-493.04ZM479.84-116q-74.84 0-141.47-28.71-66.62-28.71-116-78.5Q173-273 144.5-338.5 116-404 116-479.5q0-76.5 28.71-142.63 28.71-66.12 78.5-115.5Q273-787 338.5-815.5 404-844 479.5-844q76.5 0 142.51 28.74 66 28.74 115.29 78.08 49.28 49.34 77.99 115.42Q844-555.68 844-480q0 76-28.5 141.5t-77.94 115.29q-49.45 49.79-115.66 78.5Q555.68-116 479.84-116Z"/></svg>